<svg width="1572" height="393" viewBox="0 0 1572 393" fill="none" xmlns="http://www.w3.org/2000/svg">
<g clip-path="url(#clip0_358_2617)">
<path d="M155.132 0L361.974 93.0792V299.921L155.132 206.842V0Z" fill="#00008B"/>
<path opacity="0.8" d="M103.421 31.0264L310.263 124.106V330.947L103.421 237.869V31.0264Z" fill="#0000B9"/>
<path opacity="0.8" d="M51.7107 62.0527L258.553 155.131V361.974L51.7107 268.895V62.0527Z" fill="#0000E7"/>
<path opacity="0.8" d="M0 93.0791L206.842 186.158V393L0 299.921V93.0791Z" fill="#1616FF"/>
<path d="M538.583 217.563L568.676 240.134C552.223 262.004 530.152 272.939 502.466 272.939C479.994 272.939 461.335 265.615 446.488 250.969C431.641 236.322 424.217 218.365 424.217 197.098C424.217 175.831 431.741 157.874 446.789 143.227C461.837 128.38 480.496 120.956 502.766 120.956C515.206 120.956 526.741 123.665 537.378 129.082C548.209 134.298 557.138 141.321 564.159 150.149L536.471 174.526C527.647 162.889 516.41 157.071 502.766 157.071C491.531 157.071 482.101 160.983 474.477 168.808C467.053 176.432 463.342 185.862 463.342 197.098C463.342 208.534 467.053 218.064 474.477 225.689C482.101 233.112 491.832 236.824 503.67 236.824C511.093 236.824 517.815 235.018 523.833 231.406C530.052 227.594 534.967 222.98 538.583 217.563ZM598.675 250.969C583.825 236.322 576.4 218.365 576.4 197.098C576.4 175.831 583.825 157.874 598.675 143.227C613.52 128.38 631.981 120.956 654.052 120.956C676.117 120.956 694.578 128.38 709.423 143.227C724.273 157.874 731.698 175.831 731.698 197.098C731.698 218.365 724.273 236.322 709.423 250.969C694.578 265.615 676.117 272.939 654.052 272.939C631.981 272.939 613.52 265.615 598.675 250.969ZM626.363 168.808C619.137 176.432 615.527 185.862 615.527 197.098C615.527 208.334 619.137 217.764 626.363 225.388C633.584 233.012 642.812 236.824 654.052 236.824C665.286 236.824 674.514 233.012 681.734 225.388C688.96 217.764 692.571 208.334 692.571 197.098C692.571 185.862 688.96 176.432 681.734 168.808C674.514 160.983 665.286 157.071 654.052 157.071C642.812 157.071 633.584 160.983 626.363 168.808ZM793.567 269.929H754.439V123.966H792.057V135.703C803.093 125.872 816.235 120.956 831.483 120.956C851.547 120.956 867.901 128.58 880.54 143.829C894.987 128.58 912.242 120.956 932.306 120.956C942.335 120.956 951.867 123.063 960.896 127.276C970.123 131.49 977.648 137.208 983.464 144.431C993.3 156.469 998.215 172.52 998.215 192.583V269.929H959.088V191.079C959.088 179.843 956.683 171.516 951.867 166.099C946.449 160.08 939.129 157.071 929.896 157.071C922.271 157.071 915.25 159.077 908.831 163.09C902.611 167.103 897.895 171.516 894.683 176.332C895.49 182.753 895.888 188.17 895.888 192.583V269.929H856.766V191.079C856.766 179.843 854.356 171.516 849.54 166.099C844.122 160.08 836.802 157.071 827.574 157.071C814.327 157.071 802.993 163.09 793.567 175.128V269.929ZM1015.62 253.376L1034.58 225.388C1045.21 235.018 1058.55 239.833 1074.61 239.833C1079.82 239.833 1084.23 238.73 1087.85 236.523C1091.47 234.116 1093.26 231.106 1093.26 227.494C1093.26 223.482 1090.85 220.071 1086.04 217.262C1081.23 214.453 1075.31 211.945 1068.29 209.738C1061.46 207.531 1054.54 205.023 1047.52 202.214C1040.5 199.205 1034.58 194.69 1029.76 188.671C1024.95 182.451 1022.54 175.028 1022.54 166.401C1022.54 152.958 1028.06 142.023 1039.09 133.596C1050.33 125.17 1063.47 120.956 1078.52 120.956C1087.55 120.956 1096.78 122.461 1106.2 125.47C1115.63 128.28 1122.86 131.69 1127.88 135.703L1109.52 163.993C1100.28 157.372 1090.96 154.061 1081.53 154.061C1075.91 154.061 1071.19 155.165 1067.39 157.372C1063.57 159.378 1061.67 162.187 1061.67 165.799C1061.67 169.209 1064.07 172.119 1068.89 174.526C1073.71 176.934 1079.62 179.241 1086.65 181.448C1093.67 183.655 1100.58 186.364 1107.41 189.574C1114.43 192.583 1120.35 197.399 1125.17 204.02C1129.98 210.44 1132.39 218.365 1132.39 227.795C1132.39 241.238 1126.67 252.173 1115.23 260.6C1104 268.825 1090.36 272.939 1074.3 272.939C1052.84 272.939 1033.28 266.418 1015.62 253.376ZM1197.27 123.966V269.929H1158.15V123.966H1197.27ZM1159.65 89.9579C1154.63 85.1424 1152.13 79.2238 1152.13 72.2017C1152.13 65.179 1154.63 59.2604 1159.65 54.4449C1164.66 49.6298 1170.68 47.2222 1177.71 47.2222C1184.73 47.2222 1190.75 49.6298 1195.76 54.4449C1200.78 59.2604 1203.29 65.179 1203.29 72.2017C1203.29 79.2238 1200.78 85.1424 1195.76 89.9579C1190.75 94.773 1184.73 97.1807 1177.71 97.1807C1170.68 97.1807 1164.66 94.773 1159.65 89.9579ZM1372.1 123.966V261.803C1372.1 285.479 1367.69 303.536 1358.86 315.975C1352.24 325.205 1343.21 332.327 1331.77 337.343C1320.54 342.559 1308 345.168 1294.16 345.168C1280.31 345.168 1266.97 342.359 1254.13 336.741C1241.49 331.123 1231.45 323.9 1224.03 315.073L1248.71 289.491C1261.74 303.536 1276.9 310.558 1294.16 310.558C1307.4 310.558 1317.33 306.646 1323.94 298.821C1329.96 292.2 1332.97 280.764 1332.97 264.512V259.697C1321.54 268.525 1308.5 272.939 1293.85 272.939C1283.22 272.939 1272.99 270.732 1263.15 266.317C1253.33 261.903 1245.1 255.885 1238.48 248.26C1226.24 234.015 1220.12 216.961 1220.12 197.098C1220.12 175.63 1227.04 157.572 1240.88 142.926C1254.93 128.28 1271.88 120.956 1291.75 120.956C1308.2 120.956 1322.45 125.872 1334.48 135.703V123.966H1372.1ZM1332.97 218.767V175.128C1323.94 163.09 1311.91 157.071 1296.86 157.071C1285.82 157.071 1276.79 161.084 1269.77 169.109C1262.75 176.934 1259.25 186.263 1259.25 197.098C1259.25 208.534 1262.86 218.064 1270.08 225.689C1277.5 233.112 1286.73 236.824 1297.77 236.824C1312.81 236.824 1324.56 230.805 1332.97 218.767ZM1446.09 269.929H1406.97V123.966H1444.59V135.703C1456.64 125.872 1470.38 120.956 1485.82 120.956C1506.49 120.956 1523.34 128.781 1536.38 144.431C1546.41 156.268 1551.43 173.322 1551.43 195.593V269.929H1512.31V192.583C1512.31 180.144 1509.4 171.015 1503.58 165.196C1498.17 159.779 1490.83 157.071 1481.61 157.071C1474.18 157.071 1467.16 158.977 1460.55 162.789C1454.12 166.401 1449.31 170.513 1446.09 175.128V269.929Z" fill="white"/>
</g>
<defs>
<clipPath id="clip0_358_2617">
<rect width="1572" height="393" fill="white"/>
</clipPath>
</defs>
</svg>
